<svg width="1024" height="1024" viewBox="0 0 1024 1024" fill="none" xmlns="http://www.w3.org/2000/svg">
<rect width="1024" height="1024" fill="#F5F5F5"/>
<rect width="1024" height="1024" fill="#FAFBFC"/>
<path d="M132 328.5L221.5 282.5L311.5 266.5C311.5 266.5 376.5 272 393 298.5C406.968 320.934 383.5 365.5 383.5 365.5L586 245.5C586 245.5 740.164 247.107 812 289.5C905.897 344.911 963.5 524 963.5 524L920.5 798L771.5 896.5L602 856L535.5 779.5L527.5 741.5L418.5 747.5L376.5 741.5C376.5 741.5 370.602 701.68 386.5 687C402.232 672.474 441 681 441 681L487 687C487 687 462.304 667.337 445 657C406.5 634 398.5 601.5 398.5 601.5L366 655.5L336 689L355.5 725L267 728.5H189L202 712.5L260.5 689C260.5 689 304.959 651.148 326 621C359.5 573 341 546.5 341 546.5C341 546.5 228.497 550.045 158.5 529C82 506 40 443 40 443L132 328.5Z" fill="url(#paint0_radial_0_1)"/>
<circle cx="220" cy="409.882" r="70" fill="#FAF7EC"/>
<path d="M40.9594 445.685C40.9594 445.685 79.5799 361.776 162.896 309.547C246.212 257.318 327.359 270.59 327.359 270.59" stroke="#2D3748" stroke-width="11" stroke-linecap="round"/>
<path d="M45.7439 444.054C45.0085 442.802 43.8017 441.899 42.3767 441.553C40.9523 441.206 39.4264 441.444 38.1468 442.207C36.8673 442.97 35.9426 444.193 35.5884 445.6C35.2334 447.007 35.4781 448.483 36.2561 449.71C39.6769 454.825 43.2798 459.019 47.0389 463.186C70.0242 488.098 98.3334 506.831 128.222 521.641C190.523 548.301 258.348 547.919 324.054 547.896C329.554 547.784 335.1 547.633 340.5 547.382C335.095 547.451 329.55 547.42 324.054 547.349C258.652 545.339 190.079 542.876 131.55 515.347C102.791 499.911 75.8578 480.607 54.9848 456.364C51.6549 452.441 48.1627 447.966 45.7439 444.054Z" fill="#2D3748"/>
<path d="M328.071 266.002C328.024 269.334 327.976 272.666 327.929 275.998C331.092 276.01 334.631 276.242 338.018 276.578C360.306 278.963 386.585 286.481 393.551 308.322C398.072 345.756 371.685 382.653 351.461 415.632C349.485 418.61 347.539 421.494 345.5 424.382C347.673 421.593 349.757 418.804 351.872 415.918C373.529 383.198 402.244 350.514 399.449 306.678C391.849 279.784 362.518 270.888 339.167 267.154C335.497 266.621 331.974 266.204 328.071 266.002Z" fill="#2D3748"/>
<path d="M382.042 365.168C381.367 365.851 380.938 366.758 380.883 367.728C380.828 368.697 381.146 369.643 381.773 370.366C382.401 371.089 383.293 371.537 384.26 371.619C385.228 371.701 386.187 371.405 386.958 370.832C386.958 370.832 386.958 370.832 386.958 370.832C423.378 344.861 462.432 321.847 502.42 302.504C570.436 270.058 648.226 245.126 712.595 265.18C806.358 291.283 865.829 365.56 904.057 456.394C904.589 457.59 905.115 458.778 905.633 459.96C936.836 526.941 944.91 594.047 931.532 667.556C923.521 728.944 904.356 774.875 860.033 817.451C815.298 867.851 750.553 883.246 682.395 868.021C631.141 859.164 582.534 837.301 558.201 791.902C539.452 761.551 534.378 728.543 534.509 691.882C533.879 661.006 538.01 630.989 553.484 604.87C554.08 603.806 554.681 602.754 555.299 601.693C578.75 558.146 619.577 527.668 669.327 524.696C712.409 517.822 754.026 529.151 783.648 560.799C800.475 577.858 812.799 604.828 816 626.882C815.887 658.137 815.456 689.738 797.512 713.678C781.154 739.909 752.213 749.409 721.184 746.507C720.615 746.475 720.042 746.441 719.466 746.406C686.028 745.729 655.685 734.682 640.879 704.382C624.746 679.586 628.432 651.565 640.134 623.544C649.567 593.411 687.771 580.072 718.002 589.948C734.686 595.046 750.745 605.094 759.203 620.393C761.377 624.458 762.913 628.943 763.012 633.384C763.988 654.208 760.348 682.775 735.383 684.549C726.812 686.099 716.504 684.449 712.219 676.194C707.981 668.292 708.335 658.614 710 649.882C708.096 658.576 707.374 668.228 711.502 676.583C715.685 685.396 726.767 687.565 735.617 686.215C746.853 685.324 758.237 678.011 762.096 666.878C766.299 656.071 766.711 644.561 766.988 633.381C767.05 628.044 765.449 622.942 763.206 618.345C754.449 601.151 737.632 589.932 719.998 583.817C687.841 571.962 643.734 584.367 630.866 620.221C625.759 633.896 619.143 648.26 618.271 664.593C617.254 680.901 622.692 696.816 630.121 710.383C638.294 725.611 650.126 740.861 667.005 749.084C683.727 757.351 701.587 759.038 718.534 760.359C719.143 760.402 719.748 760.443 720.35 760.482C752.034 764.686 791.951 751.734 809.488 722.087C830.501 694.137 830.768 657.976 831 626.882C826.571 596 814.587 571.74 794.352 549.966C763.673 515.679 711.5 501.47 667.673 509.068C614.898 511.164 565.03 547.527 540.701 593.072C540.026 594.2 539.365 595.323 538.706 596.467C521.238 624.898 515.654 659.852 515.491 691.882C513.923 727.902 518.888 769.811 537.799 802.863C562.991 856.73 622.065 886.999 675.606 898.979C744.653 920.954 837.51 905.798 890.967 849.314C940.447 809.913 975.922 738.224 984.467 677.208C1003.07 600.533 994.543 508.057 959.665 436.264C959.098 434.971 958.524 433.673 957.942 432.37C919.986 336.888 834.595 238.709 725.405 218.584C635.45 199.137 556.166 238.545 489.706 279.779C450.817 304.822 414.756 333.352 382.042 365.168Z" fill="#2D3748"/>
<path d="M481 510.382C472.994 515.377 465.1 520.872 457.448 526.581C433.779 545.136 408 565.015 398.365 595.499C394.204 620.547 416.243 637.228 432.393 650.952C441.144 657.882 450.278 664.197 459.515 670.356C464.121 673.432 468.74 676.443 473.286 679.515C475.53 681.036 477.764 682.572 479.899 684.183C480.355 684.529 480.982 685.015 481.446 685.396C481.69 685.595 481.904 685.775 482.131 685.971C482.391 686.194 482.626 686.405 482.833 686.6C483.046 686.801 483.195 686.949 483.386 687.151C483.579 687.357 483.717 687.527 483.791 687.633C483.862 687.722 483.886 687.839 483.773 687.563C483.749 687.496 483.722 687.408 483.699 687.294C483.675 687.184 483.645 686.952 483.657 686.719C483.668 686.241 483.89 685.618 484.2 685.229C465.942 684.555 435.529 670.531 407.951 672.67C393.916 673.145 377.592 681.343 371.644 695.711C365.409 709.542 365.574 724.246 366.756 738.002C366.911 739.605 367.51 741.193 368.309 742.435C369.042 743.588 369.943 744.533 370.903 745.322C372.486 746.637 374.411 747.596 375.846 748.196C379.14 749.544 382.007 750.187 384.863 750.753C390.623 751.845 396.368 752.334 401.874 752.657C413.074 753.272 424.015 753.158 435.018 752.826C456.961 752.116 478.769 750.43 500.495 748.36C510.088 747.433 519.549 746.444 529.08 745.309C531.186 745.053 533.092 743.969 534.376 742.279C535.66 740.591 536.217 738.435 535.927 736.302C535.636 734.17 534.523 732.242 532.834 730.958C531.145 729.674 529.018 729.139 526.92 729.456C517.695 730.819 508.273 732.074 498.831 733.251C477.404 735.901 455.873 738.168 434.416 739.463C423.671 740.089 413.002 740.491 402.412 740.203C397.227 740.051 391.852 739.718 386.977 738.931C384.591 738.541 382.237 738.027 380.277 737.279C379.422 736.964 378.534 736.483 378.241 736.25C378.048 736.107 378.021 736.055 378.068 736.143C378.119 736.229 378.233 736.519 378.244 736.763C374.109 711.595 381.407 682.514 408.768 681.943C421.199 680.724 434.295 682.887 447.177 685.62C453.645 687.002 460.114 688.611 466.686 690.097C470.071 690.853 473.294 691.553 476.873 692.067C478.545 692.296 480.444 692.513 482.441 692.477C484.367 692.284 486.979 692.685 489.8 689.536C490.987 688.172 490.715 685.81 490.423 685.266C490.136 684.431 489.608 683.698 489.372 683.398C489.069 683.006 488.743 682.646 488.391 682.29C488.049 681.947 487.819 681.737 487.51 681.461C487.212 681.197 486.899 680.931 486.568 680.661C486.279 680.426 486.016 680.219 485.724 679.994C485.166 679.563 484.454 679.038 483.944 678.677C481.569 676.987 479.239 675.484 476.909 673.997C472.201 671.004 467.514 668.133 462.849 665.203C453.503 659.342 444.329 653.368 435.573 646.824C419.198 633.965 398.293 617.786 401.635 596.266C409.743 567.392 434.854 546.233 457.936 527.215C465.409 521.307 473.139 515.6 481 510.382Z" fill="#2D3748"/>
<path d="M359.5 519.882C361.894 523.213 364.221 526.667 366.505 530.173C379.265 550.753 393.715 573.594 393.372 596.699C391.356 614.962 379.223 630.759 366.634 644.756C360.204 651.821 353.36 658.475 346.347 665.304C342.848 668.728 339.321 672.144 335.832 675.933C334.038 677.913 332.339 679.825 330.594 682.394C329.703 683.754 328.803 685.193 328.083 687.358C327.701 688.644 327.374 689.835 327.518 691.954C327.648 693.912 328.602 696.309 330.155 697.93C337.624 706.346 345.124 714.434 352.649 722.591C355.476 725.649 358.298 728.694 361.136 731.746C362.762 733.496 364.997 734.498 367.385 734.497C369.771 734.498 372.114 733.496 373.864 731.746C375.614 729.997 376.616 727.653 376.615 725.267C376.616 722.879 375.614 720.644 373.864 719.018C370.838 716.203 367.806 713.371 364.779 710.538C356.741 702.999 348.599 695.392 340.845 687.834C341.52 688.53 342.008 689.808 342.022 690.55C342.048 690.945 342.011 691.179 341.982 691.322C341.951 691.468 341.92 691.526 341.912 691.515C341.889 691.504 341.954 691.262 342.073 690.981C342.183 690.713 342.374 690.332 342.59 689.949C343.471 688.391 344.767 686.624 346.204 684.806C349.031 681.243 352.245 677.63 355.46 673.997C361.936 666.711 368.485 659.357 374.642 651.525C386.633 635.989 398.755 618.217 399.628 597.066C397.783 569.937 381.468 549.692 367.241 529.656C364.705 526.312 362.132 523.029 359.5 519.882Z" fill="#2D3748"/>
<path d="M329 528.382C334.857 533.934 339.393 540.962 342.388 548.394C348.936 564.215 346.818 582.348 339.304 597.326C319.889 634.374 287.191 662.858 254.388 688.062L255.128 687.637C226.922 698.982 198.715 710.326 170.509 721.671L172.5 731.497C229.048 732.484 285.597 733.471 342.145 734.457C350.263 734.599 358.382 734.741 366.5 734.882C368.754 734.922 370.916 734.062 372.51 732.467C374.104 730.874 375 728.677 375 726.382C375 724.088 374.104 721.891 372.51 720.298C370.916 718.703 368.754 717.843 366.5 717.882C358.382 718.024 350.263 718.166 342.145 718.307C285.597 719.294 229.048 720.281 172.5 721.268L174.491 731.094C202.285 718.772 230.078 706.45 257.872 694.128L258.611 693.703C291.227 666.76 323.079 637.082 341.696 598.439C348.923 582.731 350.393 563.86 343.172 548.064C339.869 540.633 335.052 533.729 329 528.382Z" fill="#2D3748"/>
<path d="M232.578 479.729C227.079 479.59 221.698 478.749 216.481 477.585C196.026 473.056 178.914 461.801 167.807 445.748C167.807 445.748 167.807 445.748 167.807 445.748C154.685 426.804 153.02 399.018 164.097 378.381C176.8 353.866 206.658 340.394 234.843 344.959C254.913 347.57 272.531 361.652 281.978 380.4C284.464 385.204 286.585 390.264 288 395.5C287.145 390.136 285.535 384.829 283.491 379.705C275.902 359.832 258.277 342.528 236.155 338.039C205.885 330.73 170.014 343.936 153.903 372.619C139.772 397.468 140.912 429.311 157.191 453.251C157.191 453.251 157.191 453.251 157.191 453.251C170.242 472.505 194.072 483.471 216.05 482.329C221.698 482.121 227.294 481.348 232.578 479.729Z" fill="#2D3748"/>
<ellipse cx="254.385" cy="388.805" rx="33.6279" ry="40.9057" transform="rotate(-19.5648 254.385 388.805)" fill="#2D3748"/>
<path d="M502.318 281.537C508.66 297.72 494.706 300.275 485.277 303.97C475.848 307.665 463.768 319.27 457.426 303.087C451.084 286.904 455.323 257.805 464.752 254.11C474.181 250.415 495.976 265.354 502.318 281.537Z" fill="#2D3748"/>
<path d="M744.691 221.921C739.797 238.6 727.2 232.076 717.483 229.225C707.766 226.373 691.109 228.153 696.003 211.475C700.897 194.796 722.064 174.385 731.781 177.236C741.499 180.088 749.585 205.243 744.691 221.921Z" fill="#2D3748"/>
<path d="M803.832 242.532C795.554 257.815 784.603 248.798 775.698 243.975C766.793 239.152 750.133 237.404 758.411 222.12C766.689 206.837 791.662 191.311 800.567 196.134C809.471 200.957 812.111 227.248 803.832 242.532Z" fill="#2D3748"/>
<path d="M850.574 273.878C840.727 285.451 833.12 275.863 826.469 270.204C819.819 264.545 806.027 260.153 815.874 248.581C825.722 237.008 849.759 228.138 856.409 233.798C863.06 239.457 860.422 262.305 850.574 273.878Z" fill="#2D3748"/>
<path d="M885.578 311.652C873.049 320.25 868.21 309.009 863.269 301.809C858.327 294.609 846.162 286.768 858.69 278.169C871.218 269.57 896.738 267.287 901.679 274.487C906.621 281.687 898.106 303.053 885.578 311.652Z" fill="#2D3748"/>
<path d="M917.634 353.719C905.105 362.318 900.266 351.076 895.325 343.876C890.383 336.676 878.218 328.835 890.746 320.236C903.274 311.637 928.794 309.354 933.735 316.554C938.677 323.754 930.162 345.12 917.634 353.719Z" fill="#2D3748"/>
<path d="M683.196 214.964C683.503 232.343 669.533 229.876 659.407 230.055C649.282 230.233 633.915 236.903 633.609 219.524C633.302 202.145 647.413 176.347 657.539 176.168C667.664 175.99 682.89 197.585 683.196 214.964Z" fill="#2D3748"/>
<path d="M622.482 225.506C625.116 242.687 610.941 242.115 600.931 243.65C590.921 245.185 576.587 253.855 573.953 236.674C571.319 219.493 581.844 192.036 591.854 190.501C601.864 188.966 619.847 208.325 622.482 225.506Z" fill="#2D3748"/>
<path d="M562.555 246.537C568.897 262.72 554.943 265.275 545.514 268.97C536.085 272.665 524.005 284.27 517.663 268.087C511.321 251.904 515.56 222.805 524.989 219.11C534.418 215.415 556.213 230.354 562.555 246.537Z" fill="#2D3748"/>
<defs>
<radialGradient id="paint0_radial_0_1" cx="0" cy="0" r="1" gradientUnits="userSpaceOnUse" gradientTransform="translate(323 489) rotate(58.6778) scale(328.941 453.643)">
<stop stop-color="#38B2AC"/>
<stop offset="1" stop-color="#377F96"/>
</radialGradient>
</defs>
</svg>
